# xmcd CD database file
#
# Track frame offsets:
#	150
#	3912
#	74582
#
# Disc length: 2021 seconds
#
# Revision: 0
# Processed by: cddbd v1.4PL0 Copyright (c) Steve Scherf et al.
# Submitted via: CDex 1.50
#
DISCID=1f07e303
DTITLE=Yosuke Yamashita - Dancing Kojiki
DYEAR=1900
DGENRE=Jazz
TTITLE0=Asitation
TTITLE1=Theme
TTITLE2=Kikui
EXTD=
EXTT0=
EXTT1=
EXTT2=
PLAYORDER=
